<svg width="24" height="24" viewBox="0 0 24 24" fill="none" xmlns="http://www.w3.org/2000/svg">
<g clip-path="url(#clip0_2001_1629)">
<path d="M20.793 9.52408C20.9864 9.71069 21.1406 9.93395 21.2467 10.1808C21.3527 10.4277 21.4086 10.6932 21.4109 10.9619C21.4133 11.2306 21.3621 11.497 21.2603 11.7457C21.1586 11.9944 21.0083 12.2203 20.8182 12.4103C20.6282 12.6003 20.4022 12.7505 20.1535 12.8521C19.9048 12.9538 19.6383 13.0049 19.3696 13.0025C19.101 13 18.8354 12.9441 18.5886 12.8379C18.3418 12.7317 18.1186 12.5775 17.932 12.3841C17.5688 12.0016 17.3693 11.4923 17.3761 10.9649C17.383 10.4375 17.5955 9.93353 17.9685 9.56054C18.3415 9.18755 18.8454 8.975 19.3729 8.96819C19.9003 8.96138 20.4105 9.16085 20.793 9.52408Z" stroke="#FAFBFC" stroke-width="1.5" stroke-linecap="round" stroke-linejoin="round"/>
<path d="M14.203 5.91202C14.7873 6.4963 15.1155 7.28874 15.1155 8.11502C15.1155 8.94131 14.7873 9.73375 14.203 10.318C13.6188 10.9023 12.8263 11.2305 12 11.2305C11.1737 11.2305 10.3813 10.9023 9.79703 10.318C9.21276 9.73375 8.88452 8.94131 8.88452 8.11502C8.88452 7.70589 8.96511 7.30076 9.12168 6.92277C9.27825 6.54478 9.50773 6.20133 9.79703 5.91202C10.0863 5.62272 10.4298 5.39324 10.8078 5.23667C11.1858 5.0801 11.5909 4.99951 12 4.99951C12.8263 4.99951 13.6188 5.32775 14.203 5.91202Z" stroke="#FAFBFC" stroke-width="1.5" stroke-linecap="round" stroke-linejoin="round"/>
<path d="M6.06792 9.52408C6.26375 9.71005 6.42036 9.93334 6.52852 10.1808C6.63668 10.4283 6.6942 10.6949 6.69769 10.9649C6.70117 11.2349 6.65056 11.5029 6.54882 11.7531C6.44709 12.0033 6.29629 12.2305 6.10533 12.4215C5.91437 12.6125 5.68711 12.7633 5.43694 12.865C5.18678 12.9667 4.91877 13.0173 4.64873 13.0138C4.3787 13.0104 4.11209 12.9528 3.86463 12.8447C3.61718 12.7365 3.39388 12.5799 3.20792 12.3841C2.84468 12.0016 2.64521 11.4923 2.65202 10.9649C2.65884 10.4375 2.87139 9.93353 3.24438 9.56054C3.61737 9.18755 4.12129 8.975 4.64873 8.96819C5.17618 8.96138 5.68542 9.16085 6.06792 9.52408Z" stroke="#FAFBFC" stroke-width="1.5" stroke-linecap="round" stroke-linejoin="round"/>
<path d="M23 19.0001V17.9041C23 17.241 22.7366 16.6051 22.2677 16.1363C21.7989 15.6674 21.163 15.4041 20.5 15.4041H19.699" stroke="#FAFBFC" stroke-width="1.5" stroke-linecap="round" stroke-linejoin="round"/>
<path d="M1 19.0001V17.9041C1 17.241 1.26339 16.6051 1.73223 16.1363C2.20107 15.6674 2.83696 15.4041 3.5 15.4041H4.301" stroke="#FAFBFC" stroke-width="1.5" stroke-linecap="round" stroke-linejoin="round"/>
<path d="M17.3389 18.9999V17.3989C17.3389 16.9393 17.2484 16.4842 17.0725 16.0595C16.8966 15.6349 16.6388 15.2491 16.3138 14.9241C15.9888 14.599 15.6029 14.3412 15.1783 14.1653C14.7537 13.9895 14.2985 13.8989 13.8389 13.8989H10.1599C9.23165 13.8989 8.34142 14.2677 7.68504 14.9241C7.02866 15.5804 6.65991 16.4707 6.65991 17.3989V18.9999" stroke="#FAFBFC" stroke-width="1.5" stroke-linecap="round" stroke-linejoin="round"/>
</g>
<defs>
<clipPath id="clip0_2001_1629">
<rect width="24" height="24" fill="white"/>
</clipPath>
</defs>
</svg>
